<?xml version="1.0" encoding="UTF-8"?>
<!DOCTYPE svg PUBLIC "-//W3C//DTD SVG 1.1//EN" "http://www.w3.org/Graphics/SVG/1.1/DTD/svg11.dtd">
<!-- Creator: CorelDRAW 2019 -->
<svg xmlns="http://www.w3.org/2000/svg" xml:space="preserve" version="1.1" style="shape-rendering:geometricPrecision; text-rendering:geometricPrecision; image-rendering:optimizeQuality; fill-rule:evenodd; clip-rule:evenodd"
viewBox="0 0 1218.38 361.28"
 xmlns:xlink="http://www.w3.org/1999/xlink">
 <defs>
  <style type="text/css">
   <![CDATA[
    .fil0 {fill:#FEFEFE;fill-rule:nonzero}
    
   ]]>
  </style>
 </defs>
 <g id="Layer_x0020_1">
  <metadata id="CorelCorpID_0Corel-Layer"/>
  <path class="fil0" d="M1218.38 361.28c-10.71,-18.1 -26.77,-32.68 -47.23,-41.75 -16.59,-7.35 -34.84,-10.67 -52.92,-8.65 -8.98,1.02 -17.63,3.3 -25.88,7.06 -14.21,6.48 -21.19,15.98 -37.82,10.72 -19.98,-6.32 -31.16,-33.44 -48.98,-45.87 -15.4,-10.75 -33.74,-17.06 -52.27,-19.42 -36.59,-4.67 -73.16,6.89 -98.92,32.73 -41.15,-135.26 -106.02,-288.46 -268.99,-295.82 -80.74,-3.65 -157.95,29.16 -220.67,78.15 -33.76,26.38 -63.78,57.15 -91.46,89.75 -12.51,14.74 -24.4,29.93 -36.26,45.19 -19.75,25.43 -35.03,43.87 -70.1,36.76 -79.03,-16.04 -130.46,49.31 -166.88,111.15l1218.38 0z"/>
 </g>
</svg>
