<?xml version="1.0" encoding="UTF-8"?>
<!DOCTYPE svg PUBLIC "-//W3C//DTD SVG 1.1//EN" "http://www.w3.org/Graphics/SVG/1.1/DTD/svg11.dtd">
<!-- Creator: CorelDRAW 2019 -->
<svg xmlns="http://www.w3.org/2000/svg" xml:space="preserve" width="535px" height="553px" version="1.1" style="shape-rendering:geometricPrecision; text-rendering:geometricPrecision; image-rendering:optimizeQuality; fill-rule:evenodd; clip-rule:evenodd"
viewBox="0 0 223.92 231.28"
 xmlns:xlink="http://www.w3.org/1999/xlink">
 <defs>
  <style type="text/css">
   <![CDATA[
    .fil1 {fill:#FEFEFE;fill-rule:nonzero}
    .fil3 {fill:#F2BD25;fill-rule:nonzero}
    .fil2 {fill:#F1D12F;fill-rule:nonzero}
    .fil0 {fill:#343647;fill-rule:nonzero}
   ]]>
  </style>
 </defs>
 <g id="Layer_x0020_1">
  <metadata id="CorelCorpID_0Corel-Layer"/>
  <path class="fil0" d="M67.11 231.28c3.94,0 7.14,-3.2 7.14,-7.14 0,-0.73 -0.6,-1.32 -1.33,-1.32 -0.73,0 -1.33,0.59 -1.33,1.32 0,2.47 -2.01,4.48 -4.48,4.48 -2.47,0 -4.48,-2.01 -4.48,-4.48 0,-2.47 2.01,-4.48 4.48,-4.48 0.74,0 1.33,-0.59 1.33,-1.32l0 -16.07c0,-0.73 -0.59,-1.32 -1.33,-1.32 -0.73,0 -1.33,0.59 -1.33,1.32l0 14.86c-3.3,0.62 -5.8,3.53 -5.8,7.01 0,3.94 3.2,7.14 7.13,7.14z"/>
  <path class="fil1" d="M71.98 178.87c0.49,0 0.88,-0.4 0.88,-0.88l0 -102.92c0,-0.49 -0.39,-0.89 -0.88,-0.89 -0.49,0 -0.88,0.4 -0.88,0.89l0 102.92c0,0.48 0.39,0.88 0.88,0.88z"/>
  <path class="fil1" d="M62.24 178.87c0.49,0 0.89,-0.4 0.89,-0.88l0 -102.92c0,-0.49 -0.4,-0.89 -0.89,-0.89 -0.49,0 -0.88,0.4 -0.88,0.89l0 102.92c0,0.48 0.39,0.88 0.88,0.88z"/>
  <path class="fil2" d="M84.3 80.91l0 -6.31c0,-1.08 -0.88,-1.95 -1.96,-1.95l-31.2 0c-1.08,0 -1.95,0.87 -1.95,1.95l0 6.31c0,1.07 0.87,1.95 1.95,1.95l31.2 0c1.08,0 1.96,-0.88 1.96,-1.95z"/>
  <path class="fil3" d="M72.43 206.97c1.95,0 3.6,-1.4 3.92,-3.32l3.88 -23.67c0.19,-1.15 -0.14,-2.32 -0.89,-3.21 -0.76,-0.89 -1.86,-1.4 -3.03,-1.4l-18.4 0c-1.18,0 -2.29,0.52 -3.05,1.43 -0.76,0.91 -1.07,2.09 -0.85,3.26l4.35 23.66c0.35,1.88 1.99,3.25 3.91,3.25l10.16 0z"/>
  <path class="fil0" d="M66.03 70.55l0.42 -0.17 26.21 -23.66 131.26 -45.36 0 -1.36 -131.8 45.55 -0.22 0.13 -25.88 23.36 -25.87 -23.28c-0.27,-0.24 -0.67,-0.22 -0.91,0.05 -0.24,0.26 -0.22,0.67 0.05,0.91l26.3 23.66 0.44 0.17z"/>
  <path class="fil1" d="M66.03 71.97c0.5,0 0.99,-0.19 1.37,-0.53l26.02 -23.49c0.3,-0.27 0.47,-0.66 0.47,-1.07 -0.01,-0.41 -0.19,-0.79 -0.5,-1.06 -0.33,-0.29 -0.67,-0.57 -1.01,-0.85 -0.26,-0.22 -0.58,-0.33 -0.9,-0.33 -0.34,0 -0.68,0.13 -0.95,0.37l-24.51 22.12 -24.92 -22.42c-0.38,-0.35 -0.87,-0.53 -1.38,-0.53 -0.59,0 -1.15,0.25 -1.53,0.68 -0.37,0.41 -0.56,0.93 -0.53,1.48 0.03,0.56 0.27,1.06 0.68,1.43l26.31 23.67c0.37,0.34 0.86,0.53 1.38,0.53z"/>
  <path class="fil1" d="M223.92 67.47l-222.5 0c-0.79,0 -1.42,0.64 -1.42,1.42l0 2.03c0,0.79 0.63,1.42 1.42,1.42l222.5 0 0 -4.87z"/>
  <path class="fil1" d="M223.92 43.89l-192.3 0c-0.79,0 -1.42,0.63 -1.42,1.42l0 1.69c0,0.79 0.63,1.42 1.42,1.42l192.3 0 0 -4.53z"/>
  <path class="fil1" d="M1.42 72.34c0.31,0 0.62,-0.1 0.88,-0.31l30.2 -23.92c0.33,-0.27 0.54,-0.67 0.54,-1.11l0 -1.69c0,-0.54 -0.31,-1.04 -0.8,-1.28 -0.2,-0.09 -0.41,-0.14 -0.62,-0.14 -0.31,0 -0.62,0.1 -0.88,0.3l-30.19 23.58c-0.35,0.27 -0.55,0.68 -0.55,1.12l0 2.03c0,0.55 0.31,1.04 0.8,1.28 0.2,0.1 0.41,0.14 0.62,0.14z"/>
  <path class="fil1" d="M221.97 71.97c0.51,0 1,-0.19 1.38,-0.53l0.57 -0.51 0 -5.55 -1.95 1.75 -24.92 -22.42c-0.38,-0.35 -0.87,-0.53 -1.38,-0.53 -0.58,0 -1.14,0.25 -1.53,0.68 -0.77,0.84 -0.7,2.15 0.15,2.91l26.31 23.67c0.38,0.34 0.86,0.53 1.37,0.53z"/>
  <path class="fil1" d="M169.99 71.97c0.51,0 1,-0.19 1.38,-0.53l26.31 -23.75c0.84,-0.77 0.91,-2.07 0.15,-2.91 -0.39,-0.44 -0.95,-0.69 -1.53,-0.69 -0.51,0 -1.01,0.19 -1.39,0.54l-24.92 22.5 -24.93 -22.42c-0.37,-0.35 -0.86,-0.53 -1.38,-0.53 -0.58,0 -1.14,0.25 -1.53,0.68 -0.76,0.84 -0.69,2.15 0.16,2.91l26.3 23.67c0.38,0.34 0.87,0.53 1.38,0.53z"/>
  <path class="fil1" d="M118.01 71.97c0.51,0 1,-0.19 1.38,-0.53l26.3 -23.75c0.41,-0.37 0.65,-0.88 0.68,-1.43 0.03,-0.55 -0.16,-1.08 -0.53,-1.49 -0.38,-0.43 -0.94,-0.68 -1.53,-0.68 -0.51,0 -1,0.19 -1.38,0.54l-24.92 22.5 -24.93 -22.42c-0.38,-0.35 -0.87,-0.53 -1.38,-0.53 -0.58,0 -1.14,0.25 -1.53,0.68 -0.76,0.84 -0.69,2.15 0.15,2.91l26.31 23.67c0.38,0.34 0.87,0.53 1.38,0.53z"/>
  <path class="fil1" d="M31.62 71.97c1.13,0 2.06,-0.93 2.06,-2.06l0 -23.75c0,-1.14 -0.93,-2.06 -2.06,-2.06 -1.14,0 -2.06,0.92 -2.06,2.06l0 23.75c0,1.13 0.92,2.06 2.06,2.06z"/>
 </g>
</svg>
