<?xml version="1.0" encoding="UTF-8"?>
<!DOCTYPE svg PUBLIC "-//W3C//DTD SVG 1.1//EN" "http://www.w3.org/Graphics/SVG/1.1/DTD/svg11.dtd">
<!-- Creator: CorelDRAW 2019 -->
<svg xmlns="http://www.w3.org/2000/svg" xml:space="preserve" width="1061px" height="781px" version="1.1" style="shape-rendering:geometricPrecision; text-rendering:geometricPrecision; image-rendering:optimizeQuality; fill-rule:evenodd; clip-rule:evenodd"
viewBox="0 0 13247.68 9747.08"
 xmlns:xlink="http://www.w3.org/1999/xlink">
 <defs>
  <style type="text/css">
   <![CDATA[
    .fil3 {fill:#FEFEFE;fill-rule:nonzero}
    .fil5 {fill:#F9D19E;fill-rule:nonzero}
    .fil10 {fill:#F5A926;fill-rule:nonzero}
    .fil6 {fill:#F7C98E;fill-rule:nonzero}
    .fil8 {fill:#F4B426;fill-rule:nonzero}
    .fil7 {fill:#F2BD25;fill-rule:nonzero}
    .fil4 {fill:#F2F4F7;fill-rule:nonzero}
    .fil9 {fill:#D18E32;fill-rule:nonzero}
    .fil1 {fill:#B5E0F4;fill-rule:nonzero}
    .fil13 {fill:#B2B2B3;fill-rule:nonzero}
    .fil2 {fill:#A8D8EF;fill-rule:nonzero}
    .fil14 {fill:#9A9C9B;fill-rule:nonzero}
    .fil12 {fill:#4C4549;fill-rule:nonzero}
    .fil11 {fill:#373332;fill-rule:nonzero}
    .fil0 {fill:#343647;fill-rule:nonzero}
   ]]>
  </style>
 </defs>
 <g id="Layer_x0020_1">
  <metadata id="CorelCorpID_0Corel-Layer"/>
  <path class="fil0" d="M11907.37 7633.81l-10142.92 0c-232.07,0 -420.23,-188.12 -420.23,-420.18l0 -6793.45c0,-232.06 188.16,-420.18 420.23,-420.18l10142.92 0c232.11,0 420.22,188.12 420.22,420.18l0 6793.45c0,232.06 -188.11,420.18 -420.22,420.18z"/>
  <polygon class="fil1" points="1884.01,7094.01 11787.81,7094.01 11787.81,539.8 1884.01,539.8 "/>
  <path class="fil2" d="M1884.01 5610.41l0 -5070.61 9903.8 0 0 460.49c-132.69,-4.36 -264.84,-6.5 -397.57,-6.5 -3946.89,0 -7890.26,1912 -9506.23,4616.62z"/>
  <path class="fil3" d="M1344.22 6199.2l0 1014.43c0,232 188.16,420.18 420.23,420.18l10142.92 0c232.11,0 420.22,-188.18 420.22,-420.18l0 -1014.43 -10983.37 0z"/>
  <path class="fil4" d="M9037.15 9334.39l-755.68 -755.68 -3020.93 0 -755.74 755.68c-46.4,46.4 -19.67,339.16 75.72,339.16l4380.96 0c95.34,0 115.05,-299.78 75.67,-339.16z"/>
  <path class="fil3" d="M8281.47 8578.71l-153.06 -944.9 -2714.92 0 -152.95 944.9 -755.74 755.68c0,0 4495.99,11.34 4532.35,0l-755.68 -755.68z"/>
  <path class="fil4" d="M7702.92 8578.86c0,0 225.71,-473.33 487.38,-562.99l-61.89 -382.06 -2714.92 0 -152.95 944.9 -755.74 755.68 836.39 1.87 2361.73 -757.4z"/>
  <path class="fil5" d="M9281.18 5166.09c-145.52,-259.32 -597.94,-366.87 -1045.43,-683.19 -447.58,-316.25 -662.9,-253.48 -631.28,-671.07l-1164 0c31.66,417.59 -185.16,354.76 -632.75,671.02 -447.54,316.31 -899.92,423.88 -1045.38,683.19 -145.51,259.42 -310.81,1037.11 -310.81,1037.11l5141.86 0c0,0 -166.74,-777.64 -312.21,-1037.06z"/>
  <path class="fil6" d="M6056.17 4327.4c554.82,-313.5 842.44,303.89 1679.05,-145.88 -128.42,-108.45 -144.02,-194.68 -130.75,-369.69l-1164 0c22.92,302.49 -84.69,347.33 -384.3,515.57z"/>
  <path class="fil5" d="M5857.17 2349.08c-46.75,-41.4 -96.93,-92.88 -150.03,-31.3 -63.83,74.01 -48.32,220.57 -37.24,308.4 23.72,187.81 130.01,467.2 365.04,423.89 5.1,6.85 -168.29,-704.31 -177.77,-700.99z"/>
  <path class="fil5" d="M8187.8 2349.08c46.76,-41.4 96.9,-92.88 150.05,-31.3 63.8,74.01 48.31,220.57 37.24,308.4 -23.73,187.81 -130.03,467.2 -365.06,423.89 -5.15,6.85 168.26,-704.31 177.77,-700.99z"/>
  <path class="fil5" d="M5817.34 2135.53c0,-665.55 351.11,-1420.3 1205.15,-1420.3 948.9,0 1205.15,754.75 1205.15,1420.3 0,665.62 -351.11,1986.33 -1205.15,1986.33 -863.55,0 -1205.15,-1320.71 -1205.15,-1986.33z"/>
  <path class="fil7" d="M9281.18 5166.09c-139.02,-247.72 -558.05,-357.46 -985.41,-642.41l-1287.74 1004.45 -1260.44 -1004.45c-427.3,284.95 -846.29,394.65 -985.25,642.36 -145.51,259.42 -310.81,1037.11 -310.81,1037.11l5141.86 0c0,0 -166.8,-777.64 -312.21,-1037.06z"/>
  <path class="fil8" d="M8538.97 4670.55c-79.48,-44.05 -161.19,-92.16 -243.2,-146.87l-1287.74 1004.45 -1260.44 -1004.45c-82.32,54.92 -164.34,103.19 -244.12,147.4l1501.18 1196.35 1534.32 -1196.88z"/>
  <path class="fil9" d="M5522.14 5800.13l4.1 403.02 71.46 -150.09c0,0 -26.77,54.75 -37.76,32.81 -11.02,-22.01 -37.8,-285.74 -37.8,-285.74z"/>
  <path class="fil9" d="M8602.26 5800.13l-4.12 403.02 -71.46 -150.09c0,0 26.79,54.75 37.76,32.81 11.03,-22.01 37.82,-285.74 37.82,-285.74z"/>
  <path class="fil0" d="M8023.3 4347.63l7.49 1598.17 -2016.59 0 7.49 -1599.57c0,0 -269.04,3.95 -383.93,247.66l0 1609.26 2769.46 0 0 -1608.42c-114.88,-236.9 -383.92,-247.1 -383.92,-247.1z"/>
  <path class="fil0" d="M7503.51 602.64c-25.94,-8.95 -52.88,-16.86 -80.2,-24.24 -2.43,-4.38 -59.69,-110.47 -132.46,-140.32 -8.27,-3.39 -17.78,1.71 -20.74,10.14 -8.17,22.72 -20.18,52.74 -45.72,76.6 -6.25,-53 -33.24,-115.67 -76.93,-155.71 -9.4,-8.68 -21.48,-7.8 -31.04,0 -140.9,114.05 -314.72,165.24 -480.41,233.05 -290.68,99.34 -562.21,310.6 -732.18,679.14 -225.25,488.45 -106.04,1582.52 54.24,1581.53 -96.48,-590.15 89.52,-1119.8 345.86,-1184.66 146.46,-46.5 439.17,239.29 734.06,234.76 294.94,-4.57 605.49,-257.12 766.08,-192.31 256.41,64.79 431.62,552.06 335.15,1142.15 84.41,-62.87 88.57,-235.95 98.77,-328.54 21.79,-197.93 17.95,-398.49 25.58,-597.27 40.57,-1051.35 -568.09,-1267.97 -760.06,-1334.32z"/>
  <path class="fil7" d="M8362.23 1759.83c-11.59,-4.83 -19.86,-9.73 -20.27,-13.89 -24.77,-262.8 -13.17,-485.46 -157.13,-725.11 -288.17,-479.73 -875.15,-722.08 -1420.98,-617.4 -360.83,69.18 -699.78,289.28 -894.6,602.52 -129.4,207.95 -167.11,434.28 -166.17,674.61 0.1,21.75 1.98,43.7 -0.06,65.38 -0.41,4.16 -8.62,9.06 -20.22,13.89 -72.14,30.31 -66.27,137.2 10.45,152.32 42.96,8.49 96.64,4.28 149.68,3.5 198.47,-2.72 683.71,-4.12 1179.56,-4.22 495.86,0.1 981.1,1.5 1179.56,4.22 53.05,0.78 106.66,4.99 149.68,-3.5 76.71,-15.12 82.53,-122.01 10.5,-152.32z"/>
  <path class="fil10" d="M8362.23 1762.49c-9.14,-4.59 -16.07,-9.16 -18.83,-13.38l-2641.88 0c-2.71,4.22 -9.63,8.79 -18.72,13.38 -72.14,36.13 -66.27,163.71 10.45,181.76 42.96,10.1 96.64,5.1 149.68,4.21 198.47,-3.27 683.71,-4.93 1179.56,-5.04 495.86,0.11 981.1,1.77 1179.56,5.04 53.05,0.89 106.66,5.89 149.68,-4.21 76.71,-18.05 82.53,-145.63 10.5,-181.76z"/>
  <path class="fil10" d="M6660.35 428.86c0,0 -113.16,-70.16 -278.87,0 -165.75,70.22 -162.79,212.15 -162.79,212.15 0,0 335.77,272.74 447.9,737.8 8.64,35.84 60.18,32.98 63.45,-3.79 15.66,-174.97 15.45,-478.8 -69.69,-946.16z"/>
  <path class="fil8" d="M6670.76 1233.08c-122.58,-355.01 -362.51,-578.12 -410.82,-620.52 2.7,-30.62 21.58,-128.31 148.9,-182.24 46.18,-19.55 92.36,-29.38 137.4,-29.38 56.48,0 96.79,15.81 113.17,23.6 64.76,359.08 78.59,620.63 74.23,799.85 -0.89,36.09 -51.03,42.86 -62.88,8.69z"/>
  <path class="fil10" d="M7363.67 428.86c0,0 113.17,-70.16 278.97,0 165.71,70.22 162.75,212.15 162.75,212.15 0,0 -330.42,268.36 -445.16,726.62 -9.46,37.8 -63.97,34.69 -67.2,-4.11 -14.55,-176.68 -12.57,-477.4 70.64,-934.66z"/>
  <path class="fil8" d="M7356.8 1223.14c123.63,-349.24 359.48,-568.61 407.39,-610.58 -2.75,-30.62 -21.59,-128.31 -148.96,-182.24 -46.13,-19.55 -92.36,-29.38 -137.35,-29.38 -56.54,0 -96.85,15.81 -113.27,23.6 -63.41,351.65 -77.97,609.82 -74.44,788.68 0.78,38.54 53.74,46.28 66.63,9.92z"/>
  <path class="fil10" d="M7188.96 389.85c0,0 -58.29,-73.53 -152.89,-80.86 -94.66,-7.34 -166.02,78.48 -166.02,78.48l164.6 1070.49c2.66,17.01 27.37,16.6 29.4,-0.56l124.91 -1067.55z"/>
  <path class="fil10" d="M1926.51 9607.38l-1735.33 0 659.1 -2434.57c4.63,-18.31 21.13,-31.11 40.06,-31.11l337.06 0c18.89,0 35.43,12.8 40.06,31.11l659.05 2434.57z"/>
  <polygon class="fil3" points="1699.59,8769.11 418.09,8769.11 306.63,9180.92 1811.09,9180.92 "/>
  <polygon class="fil3" points="1430.86,7776.42 686.88,7776.42 575.42,8188.22 1542.36,8188.22 "/>
  <path class="fil11" d="M2099.28 9747.08l-2080.82 0c-10.19,0 -18.46,-8.27 -18.46,-18.46l0 -102.77c0,-10.2 8.27,-18.47 18.46,-18.47l2080.82 0c10.19,0 18.46,8.27 18.46,18.47l0 102.77c0,10.19 -8.27,18.46 -18.46,18.46z"/>
  <path class="fil12" d="M2017.68 9607.38l-1912.31 0 0 -122.16c0,-9.67 7.85,-17.58 17.57,-17.58l1877.21 0c9.67,0 17.53,7.91 17.53,17.58l0 122.16z"/>
  <path class="fil10" d="M13056.46 9607.38l-1735.33 0 659.1 -2434.57c4.63,-18.31 21.12,-31.11 40.05,-31.11l337.06 0c18.89,0 35.43,12.8 40.06,31.11l659.06 2434.57z"/>
  <polygon class="fil3" points="12829.54,8769.11 11548.03,8769.11 11436.58,9180.92 12941.04,9180.92 "/>
  <polygon class="fil3" points="12560.81,7776.42 11816.82,7776.42 11705.37,8188.22 12672.31,8188.22 "/>
  <path class="fil11" d="M13229.23 9747.08l-2080.83 0c-10.19,0 -18.46,-8.27 -18.46,-18.46l0 -102.77c0,-10.2 8.27,-18.47 18.46,-18.47l2080.83 0c10.18,0 18.45,8.27 18.45,18.47l0 102.77c0,10.19 -8.27,18.46 -18.45,18.46z"/>
  <path class="fil12" d="M13147.63 9607.38l-1912.32 0 0 -122.16c0,-9.67 7.86,-17.58 17.57,-17.58l1877.22 0c9.67,0 17.53,7.91 17.53,17.58l0 122.16z"/>
  <path class="fil13" d="M4199.92 9455.37l-144.38 0c-16.8,0 -30.48,-13.68 -30.48,-30.47l0 -2760.38c0,-16.8 13.68,-30.48 30.48,-30.48l144.38 0c16.85,0 30.47,13.68 30.47,30.48l0 2760.38c0,16.79 -13.62,30.47 -30.47,30.47z"/>
  <path class="fil13" d="M9494.57 9455.37l-144.37 0c-16.86,0 -30.48,-13.68 -30.48,-30.47l0 -2760.38c0,-16.8 13.62,-30.48 30.48,-30.48l144.37 0c16.81,0 30.47,13.68 30.47,30.48l0 2760.38c0,16.79 -13.66,30.47 -30.47,30.47z"/>
  <path class="fil14" d="M4470.42 9747.08l-696.14 0c-40.52,0 -73.34,-32.81 -73.34,-73.39l0 -209.8c0,-40.51 32.82,-73.37 73.34,-73.37l696.14 0c40.45,0 73.33,32.86 73.33,73.37l0 209.8c0,40.58 -32.88,73.39 -73.33,73.39z"/>
  <path class="fil14" d="M9775.79 9747.08l-696.03 0c-40.58,0 -73.39,-32.81 -73.39,-73.39l0 -209.8c0,-40.51 32.81,-73.37 73.39,-73.37l696.03 0c40.57,0 73.39,32.86 73.39,73.37l0 209.8c0,40.58 -32.82,73.39 -73.39,73.39z"/>
  <path class="fil8" d="M9696.31 8191.08l-5907.37 0c-123.21,0 -223.06,-99.85 -223.06,-223.11l0 -817.94c0,-123.26 99.85,-223.13 223.06,-223.13l5907.37 0c123.22,0 223.13,99.87 223.13,223.13l0 817.94c0,123.26 -99.91,223.11 -223.13,223.11z"/>
  <path class="fil7" d="M3788.94 8061.42c-51.48,0 -93.41,-41.87 -93.41,-93.45l0 -817.94c0,-51.56 41.93,-93.47 93.41,-93.47l5907.37 0c51.54,0 93.47,41.91 93.47,93.47l0 817.94c0,51.58 -41.93,93.45 -93.47,93.45l-5907.37 0z"/>
  <path class="fil3" d="M4427.09 7056.56c-244.64,242.89 -488,486.97 -731.56,730.99l0 180.42c0,51.58 41.93,93.45 93.41,93.45l55.28 0c335.31,-335.04 670.66,-669.98 1006.07,-1004.86l-423.2 0z"/>
  <path class="fil3" d="M5723.68 7056.56c-336.24,333.95 -671.07,669.26 -1005.7,1004.86l422.88 0c335.24,-335.04 670.71,-669.98 1006.11,-1004.86l-423.29 0z"/>
  <path class="fil3" d="M7020.35 7056.56c-336.23,333.95 -671.07,669.26 -1005.68,1004.86l422.88 0c335.24,-335.04 670.65,-669.98 1006.05,-1004.86l-423.25 0z"/>
  <path class="fil3" d="M8316.99 7056.56c-336.24,333.95 -671.12,669.26 -1005.65,1004.86l422.78 0c335.37,-335.04 670.72,-669.98 1006.11,-1004.86l-423.24 0z"/>
  <path class="fil3" d="M9696.31 7056.56l-55.64 0c-336.24,333.95 -671.13,669.26 -1005.7,1004.86l422.88 0c243.87,-243.71 487.91,-487.38 731.93,-731.03l0 -180.36c0,-51.56 -41.93,-93.47 -93.47,-93.47z"/>
 </g>
</svg>
