<?xml version="1.0" encoding="UTF-8"?>
<!DOCTYPE svg PUBLIC "-//W3C//DTD SVG 1.1//EN" "http://www.w3.org/Graphics/SVG/1.1/DTD/svg11.dtd">
<!-- Creator: CorelDRAW 2019 -->
<svg xmlns="http://www.w3.org/2000/svg" xml:space="preserve" width="45px" height="45px" version="1.1" style="shape-rendering:geometricPrecision; text-rendering:geometricPrecision; image-rendering:optimizeQuality; fill-rule:evenodd; clip-rule:evenodd"
viewBox="0 0 1.02 1.02"
 xmlns:xlink="http://www.w3.org/1999/xlink">
 <defs>
  <style type="text/css">
   <![CDATA[
    .fil0 {fill:#FEFEFE;fill-rule:nonzero}
   ]]>
  </style>
 </defs>
 <g id="Layer_x0020_1">
  <metadata id="CorelCorpID_0Corel-Layer"/>
  <path class="fil0" d="M0.74 0.83l-0.09 -0.1c-0.05,0.04 -0.1,0.05 -0.16,0.05 -0.17,0 -0.3,-0.13 -0.3,-0.29 0,-0.17 0.13,-0.3 0.3,-0.3 0.16,0 0.29,0.13 0.29,0.3 0,0.06 -0.02,0.11 -0.05,0.16l0.1 0.09 -0.09 0.09zm-0.23 -0.83c-0.28,0 -0.51,0.23 -0.51,0.51 0,0.28 0.23,0.51 0.51,0.51 0.28,0 0.51,-0.23 0.51,-0.51 0,-0.28 -0.23,-0.51 -0.51,-0.51z"/>
  <path class="fil0" d="M0.49 0.31c-0.1,0 -0.18,0.08 -0.18,0.18 0,0.09 0.08,0.17 0.18,0.17 0.09,0 0.17,-0.08 0.17,-0.17 0,-0.1 -0.08,-0.18 -0.17,-0.18z"/>
 </g>
</svg>
